{
  "accessors": [
    {
      "bufferView": 2,
      "componentType": 5126,
      "count": 1795,
      "max": [
        16.43359375,
        7.061684608459473,
        33.46240234375
      ],
      "min": [
        -16.578598022460938,
        -8.364502906799316,
        -0.0727953091263771
      ],
      "type": "VEC3"
    },
    {
      "bufferView": 2,
      "byteOffset": 21540,
      "componentType": 5126,
      "count": 1795,
      "max": [
        0.99977046251297,
        0.9999032020568848,
        0.9999985098838806
      ],
      "min": [
        -0.9997726678848267,
        -1.0,
        -1.0
      ],
      "type": "VEC3"
    },
    {
      "bufferView": 1,
      "componentType": 5126,
      "count": 1795,
      "max": [
        0.9979919791221619,
        0.9965760111808777
      ],
      "min": [
        0.003337979083880782,
        0.003835975890979171
      ],
      "type": "VEC2"
    },
    {
      "bufferView": 0,
      "componentType": 5125,
      "count": 8076,
      "type": "SCALAR"
    },
    {
      "bufferView": 2,
      "byteOffset": 43080,
      "componentType": 5126,
      "count": 190,
      "max": [
        4.816267490386963,
        2.004636764526367,
        28.40860366821289
      ],
      "min": [
        -4.81627082824707,
        -8.743422508239746,
        18.53200340270996
      ],
      "type": "VEC3"
    },
    {
      "bufferView": 2,
      "byteOffset": 45360,
      "componentType": 5126,
      "count": 190,
      "max": [
        0.997735857963562,
        0.26771241426467896,
        0.9933376908302307
      ],
      "min": [
        -0.997735857963562,
        -0.9994269013404846,
        -0.9999995231628418
      ],
      "type": "VEC3"
    },
    {
      "bufferView": 1,
      "byteOffset": 14360,
      "componentType": 5126,
      "count": 190,
      "max": [
        1.10207998752594,
        0.9933630228042603
      ],
      "min": [
        -0.10208199918270111,
        -0.1779119074344635
      ],
      "type": "VEC2"
    },
    {
      "bufferView": 0,
      "byteOffset": 32304,
      "componentType": 5125,
      "count": 1050,
      "type": "SCALAR"
    },
    {
      "bufferView": 2,
      "byteOffset": 47640,
      "componentType": 5126,
      "count": 190,
      "max": [
        4.816267490386963,
        2.004636764526367,
        28.40860366821289
      ],
      "min": [
        -4.81627082824707,
        -8.743422508239746,
        18.53200340270996
      ],
      "type": "VEC3"
    },
    {
      "bufferView": 2,
      "byteOffset": 49920,
      "componentType": 5126,
      "count": 190,
      "max": [
        0.997735857963562,
        0.26771241426467896,
        0.9933376908302307
      ],
      "min": [
        -0.997735857963562,
        -0.9994269013404846,
        -0.9999995231628418
      ],
      "type": "VEC3"
    },
    {
      "bufferView": 1,
      "byteOffset": 15880,
      "componentType": 5126,
      "count": 190,
      "max": [
        1.10207998752594,
        0.9933630228042603
      ],
      "min": [
        -0.10208199918270111,
        -0.1779119074344635
      ],
      "type": "VEC2"
    },
    {
      "bufferView": 0,
      "byteOffset": 36504,
      "componentType": 5125,
      "count": 1050,
      "type": "SCALAR"
    },
    {
      "bufferView": 2,
      "byteOffset": 52200,
      "componentType": 5126,
      "count": 1795,
      "max": [
        16.43359375,
        7.061684608459473,
        33.46240234375
      ],
      "min": [
        -16.578598022460938,
        -8.364502906799316,
        -0.0727953091263771
      ],
      "type": "VEC3"
    },
    {
      "bufferView": 2,
      "byteOffset": 73740,
      "componentType": 5126,
      "count": 1795,
      "max": [
        0.99977046251297,
        0.9999032020568848,
        0.9999985098838806
      ],
      "min": [
        -0.9997726678848267,
        -1.0,
        -1.0
      ],
      "type": "VEC3"
    },
    {
      "bufferView": 1,
      "byteOffset": 17400,
      "componentType": 5126,
      "count": 1795,
      "max": [
        0.9979919791221619,
        0.9965760111808777
      ],
      "min": [
        0.003337979083880782,
        0.003835975890979171
      ],
      "type": "VEC2"
    },
    {
      "bufferView": 0,
      "byteOffset": 40704,
      "componentType": 5125,
      "count": 8076,
      "type": "SCALAR"
    }
  ],
  "asset": {
    "extras": {
      "author": "ruthromantic (https://sketchfab.com/ruthromantic)",
      "license": "CC-BY-4.0 (http://creativecommons.org/licenses/by/4.0/)",
      "source": "https://sketchfab.com/3d-models/mario-f4632666734c40f1a69799a50c6d8485",
      "title": "Mario"
    },
    "generator": "Sketchfab-12.65.0",
    "version": "2.0"
  },
  "bufferViews": [
    {
      "buffer": 0,
      "byteLength": 73008,
      "name": "floatBufferViews",
      "target": 34963
    },
    {
      "buffer": 0,
      "byteLength": 31760,
      "byteOffset": 73008,
      "byteStride": 8,
      "name": "floatBufferViews",
      "target": 34962
    },
    {
      "buffer": 0,
      "byteLength": 95280,
      "byteOffset": 104768,
      "byteStride": 12,
      "name": "floatBufferViews",
      "target": 34962
    }
  ],
  "buffers": [
    {
      "byteLength": 200048,
      "uri": "scene.bin"
    }
  ],
  "extensionsRequired": [
    "KHR_materials_pbrSpecularGlossiness"
  ],
  "extensionsUsed": [
    "KHR_materials_pbrSpecularGlossiness"
  ],
  "images": [
    {
      "uri": "textures/m_Body_002_diffuse.png"
    },
    {
      "uri": "textures/m_Eye_002_diffuse.png"
    }
  ],
  "materials": [
    {
      "doubleSided": true,
      "extensions": {
        "KHR_materials_pbrSpecularGlossiness": {
          "diffuseFactor": [
            1.0,
            1.0,
            1.0,
            1.0
          ],
          "diffuseTexture": {
            "index": 0
          },
          "glossinessFactor": 0.0,
          "specularFactor": [
            0.0,
            0.0,
            0.0
          ]
        }
      },
      "name": "m_Body_002"
    },
    {
      "doubleSided": true,
      "extensions": {
        "KHR_materials_pbrSpecularGlossiness": {
          "diffuseFactor": [
            1.0,
            1.0,
            1.0,
            1.0
          ],
          "diffuseTexture": {
            "index": 1
          },
          "glossinessFactor": 0.0,
          "specularFactor": [
            0.0,
            0.0,
            0.0
          ]
        }
      },
      "name": "m_Eye_002"
    }
  ],
  "meshes": [
    {
      "name": "Object_0",
      "primitives": [
        {
          "attributes": {
            "NORMAL": 1,
            "POSITION": 0,
            "TEXCOORD_0": 2
          },
          "indices": 3,
          "material": 0,
          "mode": 4
        }
      ]
    },
    {
      "name": "Object_1",
      "primitives": [
        {
          "attributes": {
            "NORMAL": 5,
            "POSITION": 4,
            "TEXCOORD_0": 6
          },
          "indices": 7,
          "material": 1,
          "mode": 4
        }
      ]
    },
    {
      "name": "Object_2",
      "primitives": [
        {
          "attributes": {
            "NORMAL": 9,
            "POSITION": 8,
            "TEXCOORD_0": 10
          },
          "indices": 11,
          "material": 1,
          "mode": 4
        }
      ]
    },
    {
      "name": "Object_3",
      "primitives": [
        {
          "attributes": {
            "NORMAL": 13,
            "POSITION": 12,
            "TEXCOORD_0": 14
          },
          "indices": 15,
          "material": 0,
          "mode": 4
        }
      ]
    }
  ],
  "nodes": [
    {
      "children": [
        1
      ],
      "matrix": [
        1.0,
        0.0,
        0.0,
        0.0,
        0.0,
        2.220446049250313e-16,
        -1.0,
        0.0,
        0.0,
        1.0,
        2.220446049250313e-16,
        0.0,
        0.0,
        0.0,
        0.0,
        1.0
      ],
      "name": "Sketchfab_model"
    },
    {
      "children": [
        2
      ],
      "name": "Collada visual scene group"
    },
    {
      "children": [
        3
      ],
      "name": "Armature"
    },
    {
      "children": [
        4,
        5,
        6,
        7
      ],
      "name": "Object_3"
    },
    {
      "mesh": 0,
      "name": "Object_4"
    },
    {
      "mesh": 1,
      "name": "Object_5"
    },
    {
      "mesh": 2,
      "name": "Object_6"
    },
    {
      "mesh": 3,
      "name": "Object_7"
    }
  ],
  "samplers": [
    {
      "magFilter": 9729,
      "minFilter": 9987,
      "wrapS": 10497,
      "wrapT": 10497
    }
  ],
  "scene": 0,
  "scenes": [
    {
      "name": "Sketchfab_Scene",
      "nodes": [
        0
      ]
    }
  ],
  "textures": [
    {
      "sampler": 0,
      "source": 0
    },
    {
      "sampler": 0,
      "source": 1
    }
  ]
}
